<?xml version="1.0" encoding="UTF-8"?>
<!-- Generator: visioncortex VTracer 0.6.4 -->
<svg version="1.1" xmlns="http://www.w3.org/2000/svg" width="1024" height="1024">
<path d="M0 0 C337.92 0 675.84 0 1024 0 C1024 337.92 1024 675.84 1024 1024 C686.08 1024 348.16 1024 0 1024 C0 686.08 0 348.16 0 0 Z " fill="#FBEDD0" transform="translate(0,0)"/>
<path d="M0 0 C7.682202 7.507606 14.092767 16.031236 20.488281 24.636719 C25.069146 30.792315 29.761426 36.864505 34.430664 42.953125 C35.879485 44.842813 37.326641 46.733763 38.773438 48.625 C43.098241 54.271203 47.477007 59.866605 51.9375 65.40625 C54.765988 68.963288 57.524931 72.572699 60.286865 76.181396 C62.838499 79.508954 65.428379 82.79996 68.0625 86.0625 C71.748841 90.638903 75.259483 95.33459 78.769531 100.046875 C81.487409 103.645326 84.304013 107.155822 87.136719 110.664062 C89.837712 114.050213 92.429482 117.514221 95 121 C99.174918 116.996122 102.814366 112.692052 106.4375 108.1875 C106.984707 107.513965 107.531914 106.84043 108.095703 106.146484 C111.842747 101.512566 115.45571 96.79051 119 92 C122.778738 93.259579 123.488957 94.667356 125.8125 97.875 C126.381943 98.652184 126.381943 98.652184 126.962891 99.445068 C127.825519 100.623395 128.684832 101.804152 129.541504 102.986816 C132.345265 106.856889 135.17183 110.710245 138 114.5625 C138.905647 115.796616 138.905647 115.796616 139.82959 117.055664 C143.76491 122.393175 147.813714 127.57958 152.0625 132.671875 C155.141178 136.371254 158.068279 140.183815 161 144 C162.520779 145.979209 164.041617 147.958371 165.5625 149.9375 C165.977659 150.478342 166.392817 151.019185 166.820557 151.576416 C169.312063 154.818471 171.815909 158.050442 174.332031 161.273438 C180.060876 168.612225 185.754569 175.968107 191.3125 183.4375 C195.320144 188.818707 199.442344 194.068566 203.726562 199.234375 C210.419302 207.376058 216.826726 215.752827 223.239014 224.115967 C226.216174 227.994271 229.224831 231.846555 232.25 235.6875 C249.640463 257.777075 249.640463 257.777075 256.5625 267.125 C260.021347 271.775228 263.637572 276.270846 267.3125 280.75 C272.316173 286.848684 277.118712 293.066135 281.815918 299.40332 C284.61218 303.171014 287.469141 306.864594 290.4375 310.5 C293.670954 314.482752 296.385432 318.587917 299 323 C292.77581 321.90971 286.576051 320.721988 280.386719 319.449219 C264.257183 316.154689 248.13856 313.265562 231.8125 311.125 C231.039012 311.021905 230.265524 310.91881 229.468597 310.812592 C212.277562 308.542969 195.206726 307.787645 177.875 307.8125 C176.597242 307.813905 176.597242 307.813905 175.293671 307.815338 C122.095447 307.941593 69.591716 321.51351 31 360 C24.629439 366.451457 19.328901 373.477342 14.164062 380.898438 C13.449922 381.921953 12.735781 382.945469 12 384 C11.2575 385.160156 11.2575 385.160156 10.5 386.34375 C8.527006 388.522264 7.283292 388.838787 4.375 389.125 C1.675781 389.019531 1.675781 389.019531 -1 388 C-3.675523 384.845553 -5.612191 381.521739 -7.65625 377.941406 C-11.27243 371.636232 -16.139408 366.364151 -21 361 C-21.755391 360.149219 -22.510781 359.298437 -23.289062 358.421875 C-53.965223 325.742803 -103.843581 309.646849 -147.670853 307.893127 C-150.383779 307.837191 -153.095124 307.809754 -155.808594 307.796875 C-156.804938 307.789861 -157.801283 307.782846 -158.82782 307.77562 C-162.031093 307.758199 -165.234181 307.751765 -168.4375 307.75 C-169.535026 307.749325 -170.632552 307.748651 -171.763336 307.747955 C-188.716291 307.764503 -205.219813 308.413969 -222 311 C-223.178687 311.171606 -224.357373 311.343213 -225.571777 311.52002 C-241.433124 313.848959 -257.031357 316.959152 -272.595215 320.764648 C-273.784536 321.05501 -274.973857 321.345371 -276.199219 321.644531 C-277.249402 321.905969 -278.299585 322.167407 -279.381592 322.436768 C-282 323 -282 323 -285 323 C-283.53447 318.407438 -280.892296 315.235574 -277.75 311.6875 C-276.74187 310.523537 -275.735345 309.35818 -274.730469 308.191406 C-274.251421 307.635981 -273.772373 307.080557 -273.278809 306.508301 C-271.30333 304.178307 -269.507913 301.734715 -267.707031 299.269531 C-265.292691 296.059618 -262.767821 292.941546 -260.25 289.8125 C-256.428563 285.058387 -252.643974 280.281849 -248.9375 275.4375 C-241.227424 265.363267 -233.35156 255.424607 -225.408447 245.533447 C-221.825041 241.060128 -218.326188 236.530598 -214.850342 231.973145 C-211.563951 227.685983 -208.170336 223.493251 -204.75 219.3125 C-198.23983 211.351553 -191.931282 203.24252 -185.637207 195.110352 C-183.208662 191.979969 -180.762535 188.863577 -178.3125 185.75 C-177.868015 185.184907 -177.42353 184.619814 -176.965576 184.037598 C-175.206496 181.801933 -173.446493 179.566996 -171.686523 177.332031 C-170.353096 175.638351 -169.020158 173.944286 -167.6875 172.25 C-167.020289 171.401998 -167.020289 171.401998 -166.3396 170.536865 C-163.718739 167.201435 -161.110309 163.85672 -158.511719 160.503906 C-152.828078 153.170769 -147.12738 145.869136 -141.21875 138.714844 C-138.545175 135.44348 -135.923574 132.133839 -133.3125 128.8125 C-132.872688 128.254014 -132.432876 127.695527 -131.979736 127.120117 C-129.633841 124.128123 -127.330771 121.109909 -125.0625 118.058594 C-122.049778 114.026956 -118.886133 110.134709 -115.6875 106.25 C-111.093073 100.635601 -106.657247 94.939956 -102.34375 89.105469 C-97.704984 82.959104 -92.836893 76.990872 -88 71 C-84.191952 74.657099 -80.891878 78.495699 -77.6875 82.6875 C-77.233105 83.268223 -76.778711 83.848945 -76.310547 84.447266 C-73 88.753466 -73 88.753466 -73 91 C-72.01 91 -71.02 91 -70 91 C-69.753789 90.454727 -69.507578 89.909453 -69.253906 89.347656 C-64.953867 81.296803 -58.29926 74.102475 -52.503906 67.097656 C-48.907942 62.648983 -45.463704 58.0889 -42.004395 53.533691 C-38.446487 48.860142 -34.82014 44.253037 -31.125 39.6875 C-25.035096 32.148644 -19.235286 24.399248 -13.445312 16.628906 C-12.869424 15.858208 -12.293535 15.08751 -11.700195 14.293457 C-10.552696 12.745552 -9.416845 11.188952 -8.291992 9.624512 C-7.759932 8.891196 -7.227871 8.157881 -6.679688 7.402344 C-6.210308 6.74613 -5.740928 6.089917 -5.257324 5.413818 C-4.842407 4.947258 -4.42749 4.480698 -4 4 C-3.34 4 -2.68 4 -2 4 C-1.34 2.68 -0.68 1.36 0 0 Z " fill="#06304B" transform="translate(510,300)"/>
<path d="M0 0 C0.66 0 1.32 0 2 0 C2.958822 1.372809 3.907212 2.753982 4.804199 4.167969 C7.03335 7.583148 9.575479 10.770447 12.0625 14 C12.633958 14.744756 13.205415 15.489512 13.794189 16.256836 C17.840245 21.519906 21.92588 26.750816 26.038574 31.961914 C29.119392 35.86781 32.162739 39.800571 35.1875 43.75 C38.085358 47.53261 41.012238 51.287751 44 55 C49.845911 62.269466 55.484037 69.700237 61.140625 77.117188 C61.951768 78.18006 61.951768 78.18006 62.779297 79.264404 C63.882866 80.710645 64.985733 82.157421 66.087891 83.604736 C68.75923 87.104334 71.451108 90.582903 74.203125 94.019531 C74.706584 94.649963 75.210044 95.280396 75.72876 95.929932 C76.671826 97.106594 77.619908 98.279261 78.573975 99.447021 C83.397702 105.4691 83.397702 105.4691 84 109 C82.635551 111.376883 81.383172 113.137983 79.625 115.1875 C78.925885 116.046136 78.925885 116.046136 78.212646 116.922119 C77.263922 118.085025 76.307792 119.24193 75.344238 120.392578 C73.545134 122.543922 71.805044 124.740221 70.0625 126.9375 C69.421836 127.734141 68.781172 128.530781 68.121094 129.351562 C61.930014 137.081861 55.838488 144.890524 49.8125 152.75 C48.993774 153.814021 48.174769 154.877828 47.355469 155.941406 C45.811893 157.945751 44.272663 159.953452 42.738281 161.964844 C42.040898 162.86332 41.343516 163.761797 40.625 164.6875 C40.019141 165.475117 39.413281 166.262734 38.789062 167.074219 C36.94613 169.057986 35.423552 169.870952 33 171 C28.757932 164.96363 25.292478 158.841655 22.125 152.1875 C12.647125 132.849291 1.08133 116.80765 -19.613281 108.726562 C-35.178848 103.988108 -52.790021 106.653169 -66.921875 114.144531 C-76.701624 120.039684 -84.741287 127.173296 -92 136 C-92.702539 136.85207 -93.405078 137.704141 -94.128906 138.582031 C-95.603788 140.384079 -97.073727 142.190182 -98.539062 144 C-102.786801 149.178196 -107.163662 154.247685 -111.551025 159.307861 C-112.535411 160.457444 -113.505573 161.619329 -114.462646 162.791748 C-117.849395 166.899011 -121.376601 170.195515 -125.6875 173.3125 C-126.321799 173.78051 -126.956099 174.248521 -127.609619 174.730713 C-132.023049 177.879373 -136.558223 180.363109 -141.432373 182.723633 C-149.423354 186.595688 -154.621788 189.604169 -159.0625 197.601562 C-161.48468 201.850144 -164.371893 205.587209 -167.375 209.4375 C-168.490915 210.882789 -169.606801 212.328102 -170.722656 213.773438 C-171.26938 214.478232 -171.816104 215.183027 -172.379395 215.90918 C-174.418363 218.53975 -176.446039 221.178888 -178.473145 223.818604 C-180.313051 226.214238 -182.156469 228.607155 -184 231 C-171.441499 230.789512 -159.967301 230.110264 -148 226 C-146.468594 225.493398 -146.468594 225.493398 -144.90625 224.976562 C-128.054245 218.723582 -116.307712 206.200862 -105.589844 192.3125 C-103.639811 189.795785 -101.629061 187.369027 -99.5 185 C-96.424016 181.57331 -93.622595 177.956858 -90.8125 174.3125 C-86.091807 168.211304 -81.027412 162.53704 -75.726562 156.9375 C-73.016522 154.062804 -70.501952 151.056931 -68 148 C-67.67 148.66 -67.34 149.32 -67 150 C-67.769287 151.809082 -67.769287 151.809082 -69.027344 154.007812 C-69.485525 154.82113 -69.943706 155.634448 -70.415771 156.472412 C-70.917942 157.347766 -71.420112 158.22312 -71.9375 159.125 C-75.430442 165.327859 -78.831954 171.53174 -81.9375 177.9375 C-91.767214 197.866236 -103.486243 215.206136 -118 232 C-117.146641 232.146953 -116.293281 232.293906 -115.414062 232.445312 C-110.932504 233.249221 -106.465221 234.11018 -102 235 C-101.024824 235.193359 -100.049648 235.386719 -99.044922 235.585938 C-76.646531 240.124448 -51.049076 247.091618 -33.253906 262.355469 C-31.195165 264.170942 -31.195165 264.170942 -29.003906 264.109375 C-25.97502 262.432565 -24.064677 259.912028 -21.9375 257.25 C-20.957278 256.057089 -19.976802 254.864386 -18.996094 253.671875 C-18.249485 252.754385 -18.249485 252.754385 -17.487793 251.818359 C-15.194215 249.015181 -12.846364 246.25899 -10.5 243.5 C-9.585667 242.419499 -8.671606 241.338769 -7.757812 240.257812 C-5.900882 238.063019 -4.04123 235.87057 -2.179688 233.679688 C2.137238 228.594826 6.425917 223.495743 10.625 218.3125 C24.904502 200.783004 38.864033 186.797782 62 183 C66.802598 182.659145 71.562948 182.666944 76.375 182.75 C77.593164 182.755156 78.811328 182.760312 80.066406 182.765625 C89.75898 182.850184 89.75898 182.850184 93.9375 183.863281 C97.364203 184.016259 97.768781 183.760993 100.289062 181.683594 C101.414628 180.615702 102.526071 179.532783 103.625 178.4375 C111.81303 170.882707 119.721991 165.620666 131.248779 165.920898 C131.826682 165.947002 132.404585 165.973105 133 166 C128.164052 150.277515 123.314687 134.568907 118 119 C109.187819 127.623011 101.673947 137.299111 94.348145 147.185547 C90.07519 152.942147 85.587051 158.490598 81 164 C79.331908 166.040503 77.665221 168.082154 76 170.125 C71.07545 176.160993 71.07545 176.160993 65.476562 176.8125 C60.988021 177.152326 56.49798 177.074415 52 177 C53.475697 172.291825 56.264961 169.102554 59.5 165.5 C63.910234 160.476519 68.098457 155.377898 72.13208 150.045898 C75.556834 145.535878 79.104857 141.13536 82.6875 136.75 C87.716279 130.591793 92.659091 124.381087 97.480469 118.058594 C102.264126 111.833933 107.266281 105.795659 112.289307 99.763672 C112.882195 99.048887 113.475083 98.334102 114.085938 97.597656 C114.891038 96.63098 114.891038 96.63098 115.712402 95.644775 C117.074035 94.017931 117.074035 94.017931 118 92 C122.107305 92.701606 123.46939 94.519181 125.906006 97.861084 C126.390774 98.546301 126.875542 99.231519 127.375 99.9375 C128.444953 101.407461 129.516635 102.876164 130.589844 104.34375 C131.147847 105.110742 131.70585 105.877734 132.280762 106.667969 C135.092607 110.482048 138.014884 114.208042 140.9375 117.9375 C145.637624 123.954023 150.306205 129.992819 154.9375 136.0625 C158.694405 140.986087 162.462028 145.899641 166.273438 150.78125 C168.463778 153.595986 170.638702 156.422487 172.8125 159.25 C173.237568 159.802766 173.662637 160.355532 174.100586 160.925049 C176.227785 163.692089 178.353281 166.460421 180.476562 169.230469 C185.15027 175.32366 189.86094 181.385464 194.613037 187.417725 C198.428125 192.263451 202.216795 197.129354 206 202 C210.152104 207.344908 214.313027 212.682358 218.5 218 C223.908629 224.869847 229.276141 231.771434 234.640625 238.675781 C235.189604 239.382268 235.738584 240.088755 236.304199 240.81665 C237.478341 242.328362 238.651798 243.840604 239.824707 245.353271 C243.630504 250.256993 247.489507 255.111573 251.398438 259.933594 C253 262 253 262 254 264 C246.153051 263.394337 238.532983 262.059872 230.8125 260.5625 C221.237519 258.750633 211.70391 256.968286 202 256 C200.762621 255.870812 200.762621 255.870812 199.500244 255.739014 C189.425243 254.814724 179.355045 254.813886 169.244873 254.814697 C166.204122 254.812512 163.163735 254.794298 160.123047 254.775391 C148.907282 254.742594 138.07958 255.181717 127 257 C125.661107 257.2191 125.661107 257.2191 124.295166 257.442627 C122.080887 257.835985 119.88556 258.274874 117.6875 258.75 C116.907537 258.917014 116.127573 259.084028 115.323975 259.256104 C81.864172 266.721732 51.750409 282.28286 27 306 C26.494365 306.478403 25.98873 306.956807 25.467773 307.449707 C19.053182 313.540514 13.304968 319.805565 8.120605 326.987793 C7.12234 328.356782 6.066175 329.68321 5 331 C4.34 331 3.68 331 3 331 C1.626497 329.297459 0.327675 327.534514 -0.9375 325.75 C-5.813495 319.033684 -11.237084 312.970067 -17 307 C-17.533511 306.4424 -18.067021 305.8848 -18.616699 305.310303 C-43.807853 279.474592 -80.717283 262.776125 -116 257 C-117.005872 256.823398 -118.011743 256.646797 -119.048096 256.464844 C-131.18276 254.563896 -143.306077 254.603882 -155.5625 254.625 C-156.69184 254.625211 -157.821179 254.625423 -158.984741 254.625641 C-182.60187 254.669748 -204.996245 256.916916 -228.00293 262.512451 C-228.870791 262.721038 -229.738652 262.929624 -230.632812 263.144531 C-231.384497 263.333782 -232.136182 263.523032 -232.910645 263.718018 C-235.221673 264.029917 -236.794855 263.706681 -239 263 C-235.222946 257.85901 -231.305419 252.848658 -227.3125 247.875 C-223.395582 242.995501 -219.489868 238.10837 -215.625 233.1875 C-215.181804 232.623213 -214.738608 232.058926 -214.281982 231.477539 C-211.729219 228.221237 -209.188855 224.955598 -206.65625 221.683594 C-200.974354 214.346723 -195.261486 207.049237 -189.375 199.875 C-184.509802 193.944918 -179.871061 187.879131 -175.305908 181.716064 C-171.588053 176.720638 -167.659036 171.946515 -163.632812 167.195312 C-160.440661 163.374069 -157.44603 159.403743 -154.4375 155.4375 C-150.13848 149.770186 -145.760838 144.197195 -141.226562 138.714844 C-133.73355 129.578626 -126.570382 120.174145 -119.415039 110.772949 C-116.652595 107.145628 -113.859721 103.551589 -111 100 C-109.763906 98.431342 -108.527963 96.862562 -107.294922 95.291504 C-106.366626 94.109095 -105.436869 92.927832 -104.505859 91.747559 C-101.95529 88.510492 -99.429542 85.258016 -96.941406 81.972656 C-96.201927 81.005739 -96.201927 81.005739 -95.44751 80.019287 C-94.496374 78.77458 -93.55259 77.524214 -92.616943 76.267822 C-91.480698 74.789193 -90.247238 73.386288 -89 72 C-88.01 72 -87.02 72 -86 72 C-84.249436 74.026501 -82.681984 76.020347 -81.125 78.1875 C-77.999571 82.474212 -74.84874 86.337489 -71 90 C-65.34102 84.008138 -60.383097 77.608526 -55.486328 70.996826 C-52.659985 67.189311 -49.788557 63.455283 -46.75 59.8125 C-42.262249 54.40905 -38.005707 48.837415 -33.75 43.25 C-32.720845 41.899989 -32.720845 41.899989 -31.670898 40.522705 C-28.752679 36.680336 -25.871382 32.837563 -23.140625 28.859375 C-22.434219 27.915781 -21.727813 26.972188 -21 26 C-20.34 26 -19.68 26 -19 26 C-18.76668 25.293594 -18.533359 24.587188 -18.292969 23.859375 C-16.750856 20.449024 -14.757905 18.081127 -12.3125 15.25 C-11.411365 14.199112 -10.511636 13.147016 -9.613281 12.09375 C-9.170649 11.575547 -8.728018 11.057344 -8.271973 10.523438 C-5.851933 7.624964 -3.615696 4.584742 -1.375 1.546875 C-0.92125 1.036406 -0.4675 0.525937 0 0 Z " fill="#F7ECD2" transform="translate(510,326)"/>
<path d="M0 0 C3.64817 0.003167 7.295532 -0.020424 10.943604 -0.045654 C25.146143 -0.084584 38.742148 0.803106 52.718994 3.315674 C54.018933 3.534734 55.318872 3.753794 56.658203 3.979492 C80.08222 8.074578 112.452021 14.263838 129.718994 32.315674 C130.378994 33.367549 131.038994 34.419424 131.718994 35.503174 C134.788281 39.819358 138.515721 40.887592 143.593994 41.874268 C149.496001 42.652185 155.464497 42.540615 161.406494 42.565674 C163.211504 42.596611 163.211504 42.596611 165.052979 42.628174 C173.065644 42.662804 180.050093 41.590039 187.718994 39.315674 C188.473982 39.162598 189.22897 39.009521 190.006836 38.851807 C190.854354 38.586421 190.854354 38.586421 191.718994 38.315674 C192.090244 37.263799 192.090244 37.263799 192.468994 36.190674 C197.253906 25.185377 213.019694 20.110229 223.430664 15.926758 C237.303228 10.589795 251.838662 6.921896 266.406494 4.065674 C267.163416 3.914692 267.920337 3.763711 268.700195 3.608154 C286.01244 0.407996 303.345853 -0.055052 320.906494 0.003174 C322.048624 0.004997 323.190753 0.006819 324.367493 0.008698 C353.33501 0.086316 381.21546 3.002219 409.718994 8.315674 C410.942959 8.54126 412.166924 8.766846 413.427979 8.999268 C433.069848 12.656933 452.386272 17.311014 471.718994 22.315674 C471.718994 27.595674 471.718994 32.875674 471.718994 38.315674 C464.477682 37.732168 457.431798 36.8182 450.281494 35.565674 C438.119027 33.532721 425.906102 32.080934 413.656494 30.690674 C412.74989 30.586622 411.843287 30.482571 410.90921 30.375366 C404.516724 29.644912 398.119935 28.967513 391.718994 28.315674 C390.808271 28.219578 389.897549 28.123483 388.959229 28.024475 C370.765393 26.137935 352.613739 25.91642 334.343994 25.940674 C333.595265 25.940766 332.846537 25.940858 332.075119 25.940952 C309.736419 25.944493 287.764726 26.280328 265.718994 30.315674 C264.055378 30.604504 264.055378 30.604504 262.358154 30.89917 C247.135482 33.58949 232.02254 37.362916 217.718994 43.315674 C217.693213 44.533838 217.667432 45.752002 217.640869 47.00708 C217.584555 48.630812 217.527208 50.254509 217.468994 51.878174 C217.454814 52.678037 217.440635 53.4779 217.426025 54.302002 C217.156652 60.901659 215.626724 65.300015 210.929932 70.171143 C192.068955 83.855383 164.535668 84.645754 142.281494 81.128174 C131.344591 79.164955 119.852129 76.333172 111.718994 68.315674 C111.004854 67.641494 110.290713 66.967314 109.554932 66.272705 C106.877578 61.960456 107.046491 57.987614 106.968994 53.003174 C106.939346 52.071826 106.909697 51.140479 106.87915 50.180908 C106.808735 47.892411 106.755902 45.604916 106.718994 43.315674 C83.396403 35.22242 61.262234 30.218601 36.718994 27.315674 C36.007477 27.227177 35.29596 27.13868 34.562881 27.047501 C27.317329 26.220989 20.119165 26.154187 12.832275 26.147705 C11.485936 26.144475 10.139597 26.14111 8.793259 26.137619 C5.970074 26.131657 3.146921 26.129775 0.32373 26.130371 C-2.50023 26.130451 -5.324023 26.123698 -8.147949 26.109863 C-34.536078 25.982736 -60.715991 27.249687 -86.968506 30.065674 C-88.117408 30.185738 -88.117408 30.185738 -89.28952 30.308228 C-103.278451 31.784295 -117.125825 33.92361 -130.973145 36.38501 C-131.697406 36.51299 -132.421668 36.640969 -133.167877 36.772827 C-135.116761 37.11945 -137.064297 37.473625 -139.011719 37.828369 C-142.281006 38.315674 -142.281006 38.315674 -147.281006 38.315674 C-147.281006 33.035674 -147.281006 27.755674 -147.281006 22.315674 C-131.728418 17.691932 -115.972811 14.336178 -100.088135 11.093994 C-96.914727 10.44523 -93.744175 9.784527 -90.573975 9.120361 C-75.968112 6.130733 -61.175369 4.253366 -46.369843 2.558807 C-44.947713 2.393276 -43.526271 2.221754 -42.105499 2.044952 C-28.067936 0.306773 -14.136874 -0.025585 0 0 Z " fill="#06304B" transform="translate(352.281005859375,658.684326171875)"/>
<path d="M0 0 C2.504011 1.355112 4.994705 2.434599 7.65625 3.4375 C7.65625 4.0975 7.65625 4.7575 7.65625 5.4375 C8.397461 5.687578 9.138672 5.937656 9.902344 6.195312 C12.881138 7.538939 14.481573 8.955236 16.71875 11.3125 C17.369727 11.990547 18.020703 12.668594 18.691406 13.367188 C19.339805 14.050391 19.988203 14.733594 20.65625 15.4375 C21.320117 16.078164 21.983984 16.718828 22.667969 17.378906 C24.832758 19.620249 26.609809 21.955041 28.40625 24.5 C29.019844 25.357227 29.633438 26.214453 30.265625 27.097656 C31.65625 29.4375 31.65625 29.4375 31.65625 32.4375 C32.31625 32.4375 32.97625 32.4375 33.65625 32.4375 C40.871221 49.495753 41.653973 69.636789 35.15625 87.0625 C30.4587 97.631987 30.4587 97.631987 27.65625 101.4375 C26.17125 101.9325 26.17125 101.9325 24.65625 102.4375 C24.3675 103.324375 24.07875 104.21125 23.78125 105.125 C22.42665 109.113543 20.489276 111.340936 17.65625 114.4375 C16.83125 115.365625 16.00625 116.29375 15.15625 117.25 C12.460291 119.608964 11.097412 119.90412 7.65625 120.4375 C7.050391 119.649883 6.444531 118.862266 5.820312 118.050781 C5.420864 117.531531 5.021416 117.01228 4.609863 116.477295 C3.709673 115.306981 2.809612 114.136568 1.909668 112.966064 C-0.328134 110.055837 -2.567332 107.146737 -4.8125 104.242188 C-9.53095 98.12965 -14.206936 91.987253 -18.84375 85.8125 C-19.618879 84.78129 -19.618879 84.78129 -20.409668 83.729248 C-20.893228 83.083831 -21.376787 82.438413 -21.875 81.773438 C-22.303613 81.201577 -22.732227 80.629717 -23.173828 80.040527 C-24.272086 78.535693 -25.310354 76.987593 -26.34375 75.4375 C-29.626992 76.531914 -29.959821 76.931211 -31.84375 79.625 C-34.771323 83.682514 -37.811396 87.632222 -40.90625 91.5625 C-41.594609 92.440714 -41.594609 92.440714 -42.296875 93.33667 C-45.249798 97.09181 -48.270223 100.780392 -51.34375 104.4375 C-54.997752 100.926537 -58.173771 97.242259 -61.21875 93.1875 C-62.100117 92.028536 -62.981627 90.869683 -63.863281 89.710938 C-64.288188 89.149873 -64.713096 88.588809 -65.150879 88.010742 C-69.171378 82.708225 -73.284004 77.497575 -77.53125 72.375 C-82.954215 65.785305 -88.030544 58.941704 -93.116211 52.090332 C-94.51914 50.201344 -95.929659 48.318145 -97.34375 46.4375 C-96.68375 46.4375 -96.02375 46.4375 -95.34375 46.4375 C-95.22 45.710469 -95.09625 44.983437 -94.96875 44.234375 C-93.41997 36.68407 -90.727709 31.355766 -86.242188 25.113281 C-84.752695 23.013894 -83.621886 21.117954 -82.53125 18.8125 C-78.646071 11.675021 -69.275476 3.555285 -61.59375 1 C-58.714105 -0.011335 -56.092242 -1.177459 -53.40625 -2.625 C-37.788162 -10.449033 -14.835347 -8.151289 0 0 Z " fill="#FBA721" transform="translate(657.34375,317.5625)"/>
<path d="M0 0 C0.729207 0.549624 0.729207 0.549624 1.473145 1.110352 C13.528966 10.177533 25.577139 18.67961 38.878906 25.84375 C39.562754 26.212986 40.246602 26.582222 40.951172 26.962646 C42.978224 28.026021 42.978224 28.026021 45.080078 28.836182 C51.392322 31.471047 53.995628 35.64868 57.375 41.4375 C57.894492 42.28377 58.413984 43.130039 58.949219 44.001953 C61.325439 47.922409 63.371155 51.704783 65 56 C63.716497 55.98429 62.432993 55.968579 61.110596 55.952393 C56.240545 55.89712 51.370521 55.863305 46.500244 55.835205 C44.412631 55.820336 42.325048 55.800034 40.237549 55.773682 C25.872085 55.597185 12.14964 56.489017 -2 59 C-2.877701 59.154506 -3.755401 59.309012 -4.659698 59.468201 C-40.050683 65.76572 -73.727792 78.861844 -100 104 C-100.634219 104.582656 -101.268438 105.165313 -101.921875 105.765625 C-108.65631 112.142479 -113.592675 119.890523 -118 128 C-121 127 -121 127 -122.140625 125.25 C-122.506719 124.5075 -122.872813 123.765 -123.25 123 C-128.723124 112.747983 -136.743543 105.012424 -145 97 C-143.603711 92.928099 -141.694324 90.104158 -138.9375 86.8125 C-138.131836 85.84957 -137.326172 84.886641 -136.496094 83.894531 C-133.468016 80.383099 -130.363169 76.948291 -127.242188 73.519531 C-124.176537 70.074681 -121.284002 66.501494 -118.382812 62.917969 C-115.334389 59.184899 -112.215751 55.514492 -109.09082 51.845459 C-106.127524 48.358039 -103.237756 44.820964 -100.375 41.25 C-98.924454 39.49354 -97.466433 37.743219 -96 36 C-95.341289 35.207227 -94.682578 34.414453 -94.003906 33.597656 C-84.426561 23.006452 -69.434611 16.56936 -55.277344 15.796875 C-39.892164 15.612068 -39.892164 15.612068 -34 17 C-33.505 17.99 -33.505 17.99 -33 19 C-33.33 19.66 -33.66 20.32 -34 21 C-34.66 21 -35.32 21 -36 21 C-36.271831 21.584268 -36.543662 22.168535 -36.82373 22.770508 C-37.984437 24.970502 -39.256887 26.742542 -40.820312 28.671875 C-41.622754 29.667676 -41.622754 29.667676 -42.441406 30.683594 C-42.996992 31.365508 -43.552578 32.047422 -44.125 32.75 C-44.68832 33.447383 -45.251641 34.144766 -45.832031 34.863281 C-47.218077 36.57822 -48.607472 38.290324 -50 40 C-48.564698 39.719545 -47.131483 39.428393 -45.699219 39.132812 C-44.900886 38.971841 -44.102554 38.810869 -43.280029 38.64502 C-37.343483 36.965573 -34.245816 32.107799 -30.816406 27.371094 C-22.236551 16.171154 -12.142895 7.19579 0 0 Z " fill="#04304B" transform="translate(633,500)"/>
<path d="M0 0 C0.95584 -0.001068 1.91168 -0.002135 2.896484 -0.003235 C19.250866 0.022983 34.651769 1.394719 50.5625 5.4375 C51.472417 5.662119 52.382334 5.886738 53.319824 6.118164 C79.594608 12.782656 103.80466 24.786949 123.5625 43.4375 C124.182056 44.019995 124.801611 44.60249 125.439941 45.202637 C127.350706 47.015414 129.242011 48.845909 131.125 50.6875 C131.983032 51.518583 131.983032 51.518583 132.858398 52.366455 C136.822605 56.339484 139.773548 60.573907 142.5625 65.4375 C139.174518 66.234278 136.044682 66.71227 132.5625 66.4375 C129.75 63.625 129.75 63.625 128.34375 61.65625 C107.455073 35.637021 63.603866 23.893113 32.06958 20.140869 C22.643699 19.22468 13.210781 19.237799 3.75 19.25 C2.884344 19.250604 2.018688 19.251208 1.126801 19.251831 C-12.490674 19.277592 -25.915983 19.711398 -39.4375 21.4375 C-40.519668 21.571724 -41.601836 21.705947 -42.716797 21.844238 C-66.507019 24.853002 -89.630217 29.849671 -112.84082 35.758789 C-113.840496 36.013177 -113.840496 36.013177 -114.860367 36.272705 C-116.678425 36.73641 -118.495851 37.202595 -120.313232 37.668945 C-123.004511 38.330987 -125.719809 38.893962 -128.4375 39.4375 C-128.4375 34.8175 -128.4375 30.1975 -128.4375 25.4375 C-119.939055 21.852219 -111.280496 19.027433 -102.4375 16.4375 C-101.108154 16.044739 -101.108154 16.044739 -99.751953 15.644043 C-85.961944 11.617643 -72.087246 8.395844 -58 5.625 C-57.264711 5.478067 -56.529421 5.331134 -55.771851 5.179749 C-37.229707 1.500456 -18.896306 -0.004534 0 0 Z " fill="#09314A" transform="translate(357.4375,622.5625)"/>
<path d="M0 0 C1.403411 0.006481 1.403411 0.006481 2.835175 0.013092 C17.310714 0.091193 31.418273 0.793421 45.6875 3.375 C46.746626 3.557241 47.805752 3.739482 48.896973 3.927246 C61.765735 6.157434 74.447175 8.77916 86.954102 12.551758 C89.692811 13.376599 92.435497 14.187379 95.179077 14.99585 C98.558275 15.992557 101.935495 16.995894 105.3125 18 C105.966337 18.194044 106.620173 18.388088 107.293823 18.588013 C114.184633 20.638038 120.999983 22.730315 127.6875 25.375 C127.6875 29.995 127.6875 34.615 127.6875 39.375 C120.60094 38.317305 113.911822 36.606223 107.0625 34.5625 C89.960006 29.540278 72.440363 26.584613 54.875 23.6875 C53.661509 23.485037 52.448018 23.282573 51.197754 23.073975 C33.53007 20.24266 16.013431 18.964776 -1.875 19 C-2.828624 18.999879 -3.782249 18.999758 -4.764771 18.999634 C-20.590405 19.028046 -35.787253 20.087369 -51.3125 23.375 C-52.098506 23.535166 -52.884512 23.695332 -53.694336 23.860352 C-78.50624 29.038201 -115.367109 41.178779 -130.1875 63.3125 C-131.625 65.09375 -131.625 65.09375 -133.3125 66.375 C-136.47995 66.666739 -139.250954 66.184609 -142.3125 65.375 C-130.110691 39.344475 -97.774442 21.073274 -71.932861 11.532959 C-48.548673 3.23232 -24.775467 -0.21907 0 0 Z " fill="#09314A" transform="translate(672.3125,622.625)"/>
<path d="M0 0 C2.291611 2.291611 2.481995 3.337105 3.148438 6.445312 C3.346792 7.348462 3.545146 8.251611 3.749512 9.182129 C3.955923 10.153276 4.162334 11.124424 4.375 12.125 C4.821631 14.156533 5.269553 16.187783 5.71875 18.21875 C5.937891 19.215195 6.157031 20.211641 6.382812 21.238281 C8.037391 28.641995 9.968325 35.981185 11.854492 43.328613 C12.824801 47.113615 13.787483 50.90051 14.75 54.6875 C15.068237 55.918716 15.386475 57.149932 15.714355 58.418457 C16.009712 59.583608 16.305068 60.74876 16.609375 61.949219 C16.877178 62.994246 17.14498 64.039272 17.420898 65.115967 C17.974486 67.872938 18.239208 70.201117 18 73 C16.285156 75.386719 16.285156 75.386719 14.0625 77.6875 C11.182793 80.598972 11.182793 80.598972 9 84 C8.01 83.67 7.02 83.34 6 83 C6 82.34 6 81.68 6 81 C5.413477 80.728008 4.826953 80.456016 4.222656 80.175781 C2.043117 79.022809 0.340903 77.745577 -1.5625 76.1875 C-6.354517 72.549117 -11.414804 70.187535 -17 68 C-17.78375 67.677734 -18.5675 67.355469 -19.375 67.023438 C-29.11209 63.684115 -39.849001 64.738065 -50 65 C-46.474011 59.591045 -42.853198 54.348481 -38.8125 49.3125 C-37.851494 48.101616 -36.890559 46.890677 -35.929688 45.679688 C-35.444678 45.070928 -34.959668 44.462168 -34.459961 43.834961 C-32.107518 40.878278 -29.772099 37.90828 -27.4375 34.9375 C-26.983025 34.36 -26.52855 33.7825 -26.060303 33.1875 C-22.968107 29.252079 -19.914898 25.288389 -16.875 21.3125 C-12.989567 16.232616 -8.990487 11.264381 -4.910156 6.339844 C-3.215484 4.263957 -1.58922 2.157154 0 0 Z " fill="#07314B" transform="translate(511,360)"/>
<path d="M0 0 C1 1.666667 2 3.333333 3 5 C4.623398 6.70884 6.293191 8.374467 8 10 C12.888889 14.666667 12.888889 14.666667 14 18 C12.5625 20.1875 12.5625 20.1875 11 22 C9.25 21.875 9.25 21.875 7 21 C5.61558 19.035017 4.287962 17.029515 3 15 C1.354035 13.312886 -0.312371 11.645438 -2 10 C-4.375 7.375 -4.375 7.375 -6 5 C-4.873123 1.619368 -3.788253 0 0 0 Z " fill="#EEAB40" transform="translate(679,437)"/>
<path d="M0 0 C0 0.66 0 1.32 0 2 C0.99 2.33 1.98 2.66 3 3 C1.497679 6.445113 -0.524057 8.870029 -3.0625 11.625 C-5.857805 14.587892 -5.857805 14.587892 -8 18 C-8.66 18 -9.32 18 -10 18 C-10.33 18.99 -10.66 19.98 -11 21 C-12.32 20.67 -13.64 20.34 -15 20 C-15.8125 17.8125 -15.8125 17.8125 -16 15 C-13.625 12.3125 -13.625 12.3125 -11 10 C-10.67 9.34 -10.34 8.68 -10 8 C-9.34 8 -8.68 8 -8 8 C-7.731875 7.236875 -7.46375 6.47375 -7.1875 5.6875 C-5.444184 1.7421 -4.445265 0 0 0 Z " fill="#ECAA3C" transform="translate(691,302)"/>
<path d="M0 0 C0.99 0 1.98 0 3 0 C3.4125 0.928125 3.825 1.85625 4.25 2.8125 C5.705436 6.006124 5.705436 6.006124 8 7.4375 C10.999654 9.78098 11.81586 12.44758 13 16 C12.6875 18.4375 12.6875 18.4375 12 20 C10.68 20.33 9.36 20.66 8 21 C4 14.25 4 14.25 4 12 C3.01 11.67 2.02 11.34 1 11 C-2.108553 6.004112 -2.108553 6.004112 -1.75 2.6875 C-1 1 -1 1 0 0 Z " fill="#ECA534" transform="translate(572,300)"/>
<path d="M0 0 C4.485289 0.840439 8.890579 1.944177 13.3125 3.0625 C14.053066 3.24877 14.793633 3.435039 15.556641 3.626953 C17.371364 4.083561 19.18572 4.541633 21 5 C20.67 6.98 20.34 8.96 20 11 C16.453852 12.182049 15.216286 11.717339 11.6875 10.6875 C10.22957 10.265977 10.22957 10.265977 8.742188 9.835938 C5.809265 8.941856 2.892995 8.016458 0 7 C0 4.69 0 2.38 0 0 Z " fill="#ECA73A" transform="translate(701,398)"/>
<path d="M0 0 C1.98 0 3.96 0 6 0 C6 6.93 6 13.86 6 21 C3.69 21 1.38 21 -1 21 C-0.67 14.07 -0.34 7.14 0 0 Z " fill="#ECA435" transform="translate(629,283)"/>
<path d="M0 0 C0 1.65 0 3.3 0 5 C-2.767114 6.032059 -5.537913 7.050908 -8.3125 8.0625 C-9.098184 8.357051 -9.883867 8.651602 -10.693359 8.955078 C-11.450684 9.229004 -12.208008 9.50293 -12.988281 9.785156 C-13.684778 10.04176 -14.381274 10.298364 -15.098877 10.562744 C-17 11 -17 11 -20 10 C-20 8.35 -20 6.7 -20 5 C-17.610099 3.962873 -15.214731 2.94532 -12.8125 1.9375 C-12.138965 1.642949 -11.46543 1.348398 -10.771484 1.044922 C-6.789345 -0.606209 -4.148097 -1.409547 0 0 Z " fill="#ECA835" transform="translate(721,350)"/>
<path d="M0 0 C0.66 0 1.32 0 2 0 C0.018806 4.188188 -2.600556 7.610427 -5.4375 11.25 C-5.927988 11.899688 -6.418477 12.549375 -6.923828 13.21875 C-8.210216 14.871437 -9.599205 16.443098 -11 18 C-11.99 18 -12.98 18 -14 18 C-15.6875 15.5 -15.6875 15.5 -17 13 C-14.69 13.66 -12.38 14.32 -10 15 C-9.773125 14.113125 -9.54625 13.22625 -9.3125 12.3125 C-7.809923 8.520282 -5.96693 6.749837 -3 4 C-2.443125 3.236875 -1.88625 2.47375 -1.3125 1.6875 C-0.662812 0.852188 -0.662812 0.852188 0 0 Z " fill="#CDAB58" transform="translate(618,403)"/>
<path d="M0 0 C3.469415 0.458225 6.67395 0.891317 10 2 C10 3.65 10 5.3 10 7 C8.02 7.99 8.02 7.99 6 9 C4.02 6.03 2.04 3.06 0 0 Z " fill="#D8A143" transform="translate(548,348)"/>
<path d="M0 0 C0.33 0.66 0.66 1.32 1 2 C-0.214844 4.601562 -0.214844 4.601562 -1.9375 7.625 C-2.503398 8.627891 -3.069297 9.630781 -3.652344 10.664062 C-4.09707 11.434922 -4.541797 12.205781 -5 13 C-6.98 13 -8.96 13 -11 13 C-10.624883 12.564297 -10.249766 12.128594 -9.863281 11.679688 C-6.541402 7.813924 -3.253571 3.923424 0 0 Z " fill="#D0E0E0" transform="translate(442,474)"/>
<path d="M0 0 C3.248389 1.082796 4.042826 1.890368 6.1875 4.4375 C6.717305 5.054961 7.247109 5.672422 7.792969 6.308594 C9 8 9 8 9 10 C9.66 10 10.32 10 11 10 C11 10.99 11 11.98 11 13 C12.32 13.66 13.64 14.32 15 15 C14.67 16.32 14.34 17.64 14 19 C13.40832 18.203359 12.816641 17.406719 12.207031 16.585938 C7.213744 9.83834 7.213744 9.83834 1.9375 3.3125 C0 1 0 1 0 0 Z " fill="#D0A657" transform="translate(586,397)"/>
</svg>
