<?xml version="1.0" standalone="no"?>
<!DOCTYPE svg PUBLIC "-//W3C//DTD SVG 20010904//EN"
 "http://www.w3.org/TR/2001/REC-SVG-20010904/DTD/svg10.dtd">
<svg version="1.0" xmlns="http://www.w3.org/2000/svg"
 width="500.000000pt" height="500.000000pt" viewBox="0 0 500.000000 500.000000"
 preserveAspectRatio="xMidYMid meet">
<metadata>
Created by potrace 1.16, written by Peter Selinger 2001-2019
</metadata>
<g transform="translate(0.000000,500.000000) scale(0.100000,-0.100000)"
fill="#000000" stroke="none">
<path d="M3076 3594 c-9 -24 -7 -62 4 -69 6 -4 10 12 10 39 0 48 -4 56 -14 30z"/>
<path d="M2341 3341 c-77 -99 -150 -196 -163 -215 -13 -20 -28 -36 -34 -36 -6
0 -23 18 -38 40 -44 67 -19 90 -333 -310 -109 -140 -301 -385 -426 -543 -125
-158 -227 -292 -227 -297 0 -14 14 -13 118 10 123 27 326 50 437 50 345 0 650
-139 789 -358 34 -55 57 -54 96 3 45 65 150 165 213 203 90 54 211 102 315
125 185 40 532 25 764 -33 40 -10 77 -15 81 -10 5 4 -5 23 -21 41 -16 19 -134
169 -262 334 -296 380 -367 469 -409 514 -37 39 -107 129 -131 167 -23 37 -46
29 -91 -31 -50 -66 -76 -71 -108 -22 -11 17 -46 64 -77 102 -76 95 -128 176
-127 198 1 10 -5 17 -15 18 -10 0 -53 50 -101 115 -46 63 -90 114 -97 114 -7
0 -76 -81 -153 -179z m275 -87 c65 -86 156 -204 202 -261 45 -57 82 -108 82
-114 0 -5 -24 -38 -52 -72 -29 -34 -82 -101 -118 -149 -36 -49 -69 -88 -75
-88 -5 0 -28 37 -50 82 -53 108 -102 168 -167 204 -46 25 -64 29 -129 29 -108
0 -169 -33 -267 -145 -130 -149 -172 -188 -235 -221 -50 -26 -72 -45 -112
-101 -28 -39 -56 -79 -64 -89 -7 -10 -10 -26 -7 -35 8 -22 77 -15 161 17 48
17 75 37 135 99 41 42 109 122 150 178 66 89 100 121 100 93 0 -15 -159 -283
-201 -338 -45 -60 -47 -71 -16 -77 12 -3 51 -10 87 -17 88 -17 188 -58 289
-121 20 -11 24 -11 37 7 13 18 79 96 206 245 31 37 77 79 101 93 53 31 169 52
239 43 45 -6 52 -4 85 24 37 33 60 45 107 55 24 5 27 10 23 33 -11 59 -53 186
-63 189 -5 2 -58 -57 -116 -130 -102 -129 -108 -134 -149 -140 -24 -3 -47 -3
-51 -1 -4 3 10 26 31 52 60 71 249 310 267 338 9 13 21 24 28 23 6 0 45 -46
86 -102 124 -168 500 -649 536 -687 47 -49 44 -77 -5 -50 -73 39 -466 59 -605
31 -100 -20 -217 -64 -304 -113 -72 -42 -190 -146 -246 -218 -27 -35 -27 -35
-44 -10 -33 49 -128 143 -189 186 -82 59 -208 117 -318 145 -78 21 -113 24
-260 23 -166 -1 -318 -19 -364 -43 -43 -24 -57 1 -20 35 31 27 680 850 700
887 15 27 32 20 59 -23 13 -22 31 -40 41 -40 13 0 284 334 330 408 8 12 16 22
20 22 3 0 59 -70 125 -156z"/>
<path d="M2376 3085 c-59 -74 -105 -139 -102 -144 3 -4 34 -10 69 -13 63 -5
132 -33 156 -62 20 -23 48 -19 67 9 16 24 14 33 -23 182 -21 86 -44 158 -49
160 -6 2 -59 -57 -118 -132z"/>
<path d="M3012 2493 c-32 -32 -70 -72 -84 -89 -25 -31 -57 -54 -77 -54 -21 0
-10 27 24 60 19 19 35 40 35 47 0 33 -111 27 -196 -11 -42 -19 -72 -49 -187
-184 -75 -89 -137 -165 -137 -170 0 -5 12 -19 26 -33 14 -13 39 -43 56 -66 16
-24 33 -43 38 -43 4 0 24 22 44 50 87 121 274 223 496 270 30 7 119 14 198 17
159 6 159 6 117 73 -17 27 -43 49 -83 69 -31 16 -85 50 -120 75 -34 25 -68 46
-76 46 -8 0 -41 -26 -74 -57z"/>
<path d="M2800 3510 c0 -19 28 -60 41 -60 11 0 1 21 -25 55 -12 15 -15 16 -16
5z"/>
<path d="M3337 3482 c-33 -34 -38 -65 -6 -36 23 21 43 53 37 60 -3 2 -17 -9
-31 -24z"/>
<path d="M2990 3466 c-75 -20 -118 -46 -164 -98 -25 -26 -52 -69 -62 -93 -17
-45 -17 -45 23 -87 21 -24 54 -65 73 -93 18 -27 48 -66 66 -86 32 -37 32 -37
83 22 29 33 58 59 65 59 23 0 166 -169 166 -197 0 -25 38 -13 70 24 18 20 44
62 58 93 35 74 37 192 5 262 -47 103 -120 166 -225 194 -64 17 -98 17 -158 0z"/>
<path d="M3461 3274 c-19 -8 -31 -17 -28 -20 7 -8 65 5 72 16 10 16 -10 18
-44 4z"/>
<path d="M3434 3039 c-3 -5 7 -14 21 -19 32 -12 55 -13 55 -2 0 13 -69 32 -76
21z"/>
<path d="M3300 2843 c1 -16 59 -78 66 -71 8 9 -42 78 -57 78 -5 0 -9 -3 -9 -7z"/>
<path d="M1590 1949 c-183 -27 -423 -86 -458 -113 -18 -13 -11 -61 8 -59 8 1
40 8 70 16 306 84 634 99 850 40 84 -23 229 -97 287 -148 28 -25 56 -45 62
-45 28 0 5 41 -57 100 -73 70 -203 145 -302 175 -136 40 -325 55 -460 34z"/>
<path d="M3110 1945 c-192 -30 -368 -121 -478 -246 -62 -71 -26 -82 48 -16 54
49 160 108 247 138 223 77 592 59 950 -47 18 -5 23 -1 28 19 4 14 4 30 1 35
-7 11 -138 53 -256 82 -202 49 -379 60 -540 35z"/>
<path d="M1505 1770 c-90 -11 -344 -56 -390 -70 -16 -5 -49 -14 -72 -20 -38
-10 -43 -14 -43 -40 0 -39 10 -43 77 -31 257 47 706 65 893 37 108 -16 245
-52 268 -69 6 -5 12 -31 12 -58 0 -32 6 -53 17 -65 55 -54 216 -83 335 -60
133 26 182 61 178 128 -1 18 -2 38 -1 45 1 15 101 47 216 70 129 26 596 25
770 -1 184 -27 246 -31 255 -16 16 25 -2 50 -44 60 -22 6 -54 15 -71 20 -16 5
-89 20 -161 34 -301 58 -590 61 -794 8 -147 -38 -217 -69 -276 -124 -47 -43
-47 -43 -166 -43 -120 0 -120 0 -152 37 -40 48 -152 100 -288 134 -89 22 -129
26 -293 29 -104 2 -226 0 -270 -5z"/>
</g>
</svg>
