<?xml version="1.0" encoding="UTF-8"?>
<!-- Generator: visioncortex VTracer 0.6.4 -->
<svg version="1.1" xmlns="http://www.w3.org/2000/svg" width="500" height="500">
<path d="M0 0 C165 0 330 0 500 0 C500 165 500 330 500 500 C335 500 170 500 0 500 C0 335 0 170 0 0 Z " fill="#E4DEEA" transform="translate(0,0)"/>
<path d="M0 0 C0.99 0 1.98 0 3 0 C3 0.66 3 1.32 3 2 C3.66 2 4.32 2 5 2 C6.583141 4.030683 8.050223 6.064176 9.5 8.1875 C10.393924 9.467481 11.289811 10.746093 12.1875 12.023438 C12.648984 12.680537 13.110469 13.337637 13.585938 14.014648 C15.827828 17.162276 18.15117 20.244189 20.5 23.3125 C20.920879 23.868972 21.341758 24.425444 21.775391 24.998779 C23.990475 27.952631 23.990475 27.952631 27 30 C27.0825 29.13375 27.165 28.2675 27.25 27.375 C28.620459 21.207933 32.462471 17.205515 37 13 C37.721875 12.319375 38.44375 11.63875 39.1875 10.9375 C47.294998 5.352335 55.253955 3.881794 65 5 C74.422063 6.902047 81.767696 12.230762 87.441406 19.964844 C88.5 21.75 88.5 21.75 90 25 C90.529805 26.119551 90.529805 26.119551 91.070312 27.261719 C93.922077 35.661244 92.525026 46.108295 89.488281 54.257812 C86.892438 59.040705 83.120442 62.513472 79 66 C80.498461 70.590115 83.121481 73.98977 86.125 77.6875 C86.622175 78.309795 87.119351 78.93209 87.631592 79.573242 C89.082094 81.38678 90.539955 83.194142 92 85 C93.271604 86.582715 94.542527 88.165977 95.8125 89.75 C96.761895 90.933359 96.761895 90.933359 97.730469 92.140625 C102.576811 98.246516 107.339228 104.418467 112.118164 110.577148 C114.011145 113.014349 115.907374 115.448984 117.804688 117.882812 C118.423921 118.67752 119.043154 119.472227 119.681152 120.291016 C120.855461 121.797913 122.030232 123.30445 123.205566 124.810547 C124.809109 126.869582 126.40546 128.933988 128 131 C128.573633 131.735732 129.147266 132.471465 129.738281 133.229492 C130.288711 133.945244 130.839141 134.660996 131.40625 135.398438 C131.904473 136.042163 132.402695 136.685889 132.916016 137.349121 C134 139 134 139 134 141 C134.66 141 135.32 141 136 141 C136.66 142.65 137.32 144.3 138 146 C138.66 146 139.32 146 140 146 C141.507813 147.898438 141.507813 147.898438 143.125 150.375 C143.663828 151.187109 144.202656 151.999219 144.757812 152.835938 C146 155 146 155 146 157 C141.849734 156.547244 137.817659 156.006911 133.75 155.0625 C102.783165 148.012715 65.96876 145.678744 37 161 C36.03707 161.491133 35.074141 161.982266 34.082031 162.488281 C23.099793 168.441137 13.924536 176.255529 7.695312 187.199219 C6 189 6 189 2.921875 189.417969 C0 189 0 189 -1.875 186.625 C-3 184 -3 184 -3 182 C-3.66 182 -4.32 182 -5 182 C-6.480469 180.460938 -6.480469 180.460938 -8.1875 178.375 C-11.50009 174.477025 -15.016813 171.193568 -19 168 C-19.733477 167.365781 -20.466953 166.731562 -21.222656 166.078125 C-45.469573 147.935566 -79.509709 148.345119 -108 152 C-113.752624 152.897685 -119.466598 153.978964 -125.179688 155.097656 C-129.440936 155.926657 -133.686597 156.514617 -138 157 C-136.69784 152.370098 -133.975536 149.536473 -130.8125 146.070312 C-129.107373 144.122646 -127.641846 142.138235 -126.1875 140 C-125.465625 139.01 -124.74375 138.02 -124 137 C-123.34 137 -122.68 137 -122 137 C-121.724543 136.415168 -121.449087 135.830337 -121.165283 135.227783 C-120.044012 133.084142 -118.818662 131.277462 -117.355469 129.355469 C-116.843066 128.678066 -116.330664 128.000664 -115.802734 127.302734 C-115.003193 126.255693 -115.003193 126.255693 -114.1875 125.1875 C-113.138529 123.806592 -112.090345 122.425087 -111.042969 121.042969 C-110.532983 120.37314 -110.022998 119.703311 -109.497559 119.013184 C-108.027034 117.036342 -106.631716 115.019883 -105.238281 112.988281 C-104.499648 112.002148 -103.761016 111.016016 -103 110 C-102.34 110 -101.68 110 -101 110 C-100.735742 109.426367 -100.471484 108.852734 -100.199219 108.261719 C-98.935195 105.877779 -97.49212 103.922595 -95.8125 101.8125 C-95.184727 101.018438 -94.556953 100.224375 -93.910156 99.40625 C-93.279805 98.612188 -92.649453 97.818125 -92 97 C-90.915044 95.605428 -89.831706 94.209595 -88.75 92.8125 C-86.210059 89.545239 -83.655719 86.289663 -81.095459 83.03833 C-76.934351 77.753067 -72.7902 72.455773 -68.6875 67.125 C-68.274597 66.589475 -67.861694 66.05395 -67.436279 65.502197 C-64.60352 61.817143 -61.845234 58.084123 -59.15625 54.292969 C-58.583906 53.652949 -58.583906 53.652949 -58 53 C-57.34 53 -56.68 53 -56 53 C-55.67 51.68 -55.34 50.36 -55 49 C-54.34 49 -53.68 49 -53 49 C-52.740898 48.435391 -52.481797 47.870781 -52.214844 47.289062 C-50.874923 44.764325 -49.316527 42.630716 -47.5625 40.375 C-46.667246 39.210977 -46.667246 39.210977 -45.753906 38.023438 C-44 36 -44 36 -41 34 C-39.02 36.64 -37.04 39.28 -35 42 C-30.809909 39.904954 -29.819067 38.736824 -27.25 35 C-24.045358 30.449763 -20.715087 26.075053 -17.214844 21.75 C-14.058876 17.831479 -10.959641 13.869097 -7.856201 9.908936 C-6.980327 8.791882 -6.101932 7.676799 -5.220703 6.563965 C-4.071689 5.091848 -2.963978 3.587758 -1.859375 2.082031 C-0.938984 1.051426 -0.938984 1.051426 0 0 Z " fill="#5B7D4A" transform="translate(248,147)"/>
<path d="M0 0 C4.610637 4.346165 8.43619 9.185424 12.3125 14.1875 C13.280264 15.416299 13.280264 15.416299 14.267578 16.669922 C14.87666 17.453027 15.485742 18.236133 16.113281 19.042969 C16.667981 19.754773 17.222681 20.466577 17.794189 21.199951 C19 23 19 23 19 25 C19.66 25 20.32 25 21 25 C22.59375 26.949219 22.59375 26.949219 24.5 29.6875 C28.106799 34.780617 31.843556 39.743859 35.673828 44.670654 C37.5356 47.071731 39.313435 49.470153 41 52 C39.726041 54.038334 38.389381 56.038521 37 58 C36.34 58 35.68 58 35 58 C34.79375 58.66 34.5875 59.32 34.375 60 C32.508757 64.071802 30.024385 67.68797 27 71 C26.34 71 25.68 71 25 71 C24.734453 71.572344 24.468906 72.144688 24.195312 72.734375 C22.943231 75.107601 21.506365 77.122133 19.875 79.25 C19.336172 79.956406 18.797344 80.662813 18.242188 81.390625 C17.832266 81.921719 17.422344 82.452812 17 83 C14.524902 79.968788 12.728517 76.746474 10.891846 73.313232 C5.637704 63.531788 0.775025 55.643941 -10.398438 52.277344 C-18.719693 50.286442 -25.82309 51.436042 -33.476562 55.226562 C-40.347756 59.453173 -45.23547 65.412755 -50.113281 71.742188 C-56.411454 79.819062 -63.32188 85.401502 -72.25 90.375 C-76.4711 92.921472 -78.741612 96.482953 -81.394531 100.5625 C-82.782022 102.669056 -84.220193 104.540873 -85.875 106.4375 C-88.16098 108.879342 -88.16098 108.879342 -89 112 C-76.153614 111.054454 -64.664756 108.92149 -55.566406 98.902344 C-53.28822 96.135568 -51.068483 93.332949 -48.898438 90.480469 C-46.723976 87.639351 -44.498281 84.845567 -42.25 82.0625 C-41.512656 81.145977 -40.775312 80.229453 -40.015625 79.285156 C-38 77 -38 77 -35 75 C-36.638382 81.113213 -39.83938 86.264502 -43 91.6875 C-43.546562 92.636895 -44.093125 93.586289 -44.65625 94.564453 C-46.699425 98.102452 -48.733137 101.599706 -51 105 C-51.66 105 -52.32 105 -53 105 C-53.66 106.65 -54.32 108.3 -55 110 C-55.66 110 -56.32 110 -57 110 C-57 110.99 -57 111.98 -57 113 C-55.835977 113.129551 -55.835977 113.129551 -54.648438 113.261719 C-41.610457 114.95759 -30.399134 119.486515 -18.960938 125.742188 C-16.210773 127.142173 -16.210773 127.142173 -13.878906 126.984375 C-11.179173 125.569962 -9.560735 123.667603 -7.5625 121.375 C-6.77875 120.477813 -5.995 119.580625 -5.1875 118.65625 C-3.368442 116.447394 -1.683717 114.229625 -0.0625 111.875 C0.618125 110.92625 1.29875 109.9775 2 109 C2.66 109 3.32 109 4 109 C4.363516 108.164688 4.363516 108.164688 4.734375 107.3125 C8.854597 99.784193 15.634798 93.320996 23.492188 89.921875 C29.186025 88.425499 34.995112 88.714573 40.857422 88.785156 C47.092912 88.674341 49.881397 87.824617 54.232666 83.375977 C57.39451 80.91429 61.113935 81.017624 65 81 C63.887532 77.183728 62.757955 73.372736 61.625 69.5625 C61.307891 68.473887 60.990781 67.385273 60.664062 66.263672 C60.354688 65.229199 60.045313 64.194727 59.726562 63.128906 C59.443774 62.170569 59.160986 61.212231 58.869629 60.224854 C58.220424 57.830944 58.220424 57.830944 56 57 C55.7525 57.558164 55.505 58.116328 55.25 58.691406 C53.20306 62.471849 50.32537 65.551645 47.5625 68.828125 C45.749079 71.015876 44.099162 73.260763 42.5 75.609375 C36.281594 84.60069 36.281594 84.60069 32.367188 85.820312 C29.875 85.8125 29.875 85.8125 26 85 C26.763125 83.989375 27.52625 82.97875 28.3125 81.9375 C30.506386 79.028102 32.65667 76.091833 34.777344 73.128906 C35.26614 72.450295 35.754937 71.771685 36.258545 71.07251 C37.249659 69.695268 38.235548 68.31425 39.216064 66.929443 C40.428769 65.250101 41.709074 63.619985 43 62 C43.66 62 44.32 62 45 62 C45.228164 61.479219 45.456328 60.958438 45.691406 60.421875 C47.468532 57.132866 49.67876 54.216022 51.9375 51.25 C52.380293 50.648008 52.823086 50.046016 53.279297 49.425781 C54.446237 47.891889 55.717364 46.438548 57 45 C57.99 45 58.98 45 60 45 C61.804688 47.027344 61.804688 47.027344 63.875 49.9375 C64.67456 51.042551 65.475419 52.146664 66.277344 53.25 C66.711597 53.851992 67.14585 54.453984 67.593262 55.074219 C70.149209 58.573231 72.798162 62.001227 75.4375 65.4375 C76.562537 66.906222 77.687537 68.374971 78.8125 69.84375 C79.87494 71.229212 80.937436 72.614632 82 74 C82.43957 74.573633 82.879141 75.147266 83.332031 75.738281 C88.507908 82.491568 93.716072 89.219409 98.9375 95.9375 C99.527971 96.697966 100.118442 97.458433 100.726807 98.241943 C103.577655 101.908215 106.441018 105.562915 109.339844 109.191406 C109.853616 109.836663 110.367388 110.481919 110.896729 111.146729 C111.860497 112.35498 112.828253 113.560065 113.800537 114.761475 C117 118.777666 117 118.777666 117 121 C117.66 121 118.32 121 119 121 C120.98 124.465 120.98 124.465 123 128 C121.961016 127.795039 120.922031 127.590078 119.851562 127.378906 C118.442754 127.106537 117.033897 126.834415 115.625 126.5625 C114.945664 126.427793 114.266328 126.293086 113.566406 126.154297 C103.670481 124.258349 93.894901 123.789135 83.824951 123.759766 C81.833048 123.7501 79.841288 123.718911 77.849609 123.6875 C61.888195 123.624443 45.584445 126.549282 31.839844 135.046875 C30 136 30 136 27 136 C27 136.66 27 137.32 27 138 C25.171875 139.4375 25.171875 139.4375 22.75 141 C21.961094 141.515625 21.172188 142.03125 20.359375 142.5625 C18.279291 143.829836 16.196883 144.951946 14 146 C14 146.66 14 147.32 14 148 C13.34 148 12.68 148 12 148 C12 148.66 12 149.32 12 150 C10.380254 151.712302 8.704105 153.371633 7 155 C6.071875 155.928125 5.14375 156.85625 4.1875 157.8125 C3.465625 158.534375 2.74375 159.25625 2 160 C-0.910244 157.177946 -3.593698 154.30375 -6.1875 151.1875 C-19.89009 135.548355 -40.615757 126.58419 -61 124 C-65.836936 123.707021 -70.655119 123.667416 -75.5 123.6875 C-77.472266 123.690521 -77.472266 123.690521 -79.484375 123.693604 C-89.916631 123.800355 -99.799434 124.914503 -110 127 C-111.998658 127.341289 -113.998171 127.677831 -116 128 C-113.429222 123.320098 -110.14978 119.39784 -106.75 115.3125 C-102.291001 109.910953 -98.087887 104.502368 -94.269531 98.625 C-93.850586 98.08875 -93.431641 97.5525 -93 97 C-92.34 97 -91.68 97 -91 97 C-90.765391 96.292305 -90.530781 95.584609 -90.289062 94.855469 C-88.760815 91.47017 -86.799931 89.124069 -84.375 86.3125 C-83.464069 85.24415 -82.553922 84.175131 -81.644531 83.105469 C-81.194165 82.578726 -80.743799 82.051982 -80.279785 81.509277 C-70.616715 70.113418 -61.622221 58.095421 -52.4375 46.3125 C-51.829546 45.533906 -51.221592 44.755313 -50.595215 43.953125 C-50.026255 43.222227 -49.457295 42.491328 -48.871094 41.738281 C-48.365056 41.088997 -47.859019 40.439712 -47.337646 39.770752 C-46.167817 38.222153 -45.076556 36.614834 -44 35 C-40.17324 36.50337 -38.515591 38.835224 -36 42 C-34.515 42.495 -34.515 42.495 -33 43 C-32.71125 42.401875 -32.4225 41.80375 -32.125 41.1875 C-31 39 -31 39 -29 36 C-28.34 36 -27.68 36 -27 36 C-26.690625 35.01 -26.690625 35.01 -26.375 34 C-24.508757 29.928198 -22.024385 26.31203 -19 23 C-18.34 23 -17.68 23 -17 23 C-16.725994 22.418069 -16.451987 21.836138 -16.169678 21.236572 C-15.02626 19.050213 -13.764818 17.185794 -12.285156 15.214844 C-11.76373 14.519395 -11.242305 13.823945 -10.705078 13.107422 C-10.163027 12.391348 -9.620977 11.675273 -9.0625 10.9375 C-8.524316 10.217559 -7.986133 9.497617 -7.431641 8.755859 C-5.091063 5.647595 -2.809542 2.70266 0 0 Z " fill="#E1DCE7" transform="translate(249,160)"/>
<path d="M0 0 C0.724725 -0.001007 1.44945 -0.002014 2.196136 -0.003052 C21.853908 0.015367 46.213455 1.372363 61.882812 14.933594 C63.245765 16.361611 64.592967 17.804627 65.9375 19.25 C69.702496 20.734787 73.821385 20.433838 77.8125 20.4375 C78.507305 20.449746 79.202109 20.461992 79.917969 20.474609 C84.307826 20.48701 87.904284 20.006985 91.9375 18.25 C92.865625 17.074375 92.865625 17.074375 93.8125 15.875 C96.688224 12.322635 99.800447 11.033337 103.9375 9.25 C104.645195 8.921289 105.352891 8.592578 106.082031 8.253906 C111.417662 5.917863 116.850585 4.409626 122.5 3.0625 C123.196013 2.895566 123.892026 2.728633 124.609131 2.556641 C134.655195 0.266859 144.594107 0.01169 154.875 0 C155.572262 -0.001339 156.269524 -0.002679 156.987915 -0.004059 C166.786499 -0.00001 176.443617 0.431481 186.1875 1.5625 C187.201912 1.680127 188.216323 1.797754 189.261475 1.918945 C195.363877 2.711057 201.228042 3.986972 207.179199 5.543213 C211.939459 6.762982 216.75986 7.60495 221.589844 8.503906 C224.562563 9.166438 227.15932 10.021697 229.9375 11.25 C229.9375 14.22 229.9375 17.19 229.9375 20.25 C223.370804 19.908107 216.9462 19.304796 210.469864 18.189255 C199.997099 16.389903 189.607257 15.443272 179 14.9375 C178.164869 14.895414 177.329738 14.853328 176.469299 14.809967 C152.70623 13.652933 129.771009 15.016484 106.9375 22.25 C104.937721 24.249779 105.502172 28.093299 105.316406 30.804688 C104.9375 33.25 104.9375 33.25 102.9375 36.25 C101.9475 36.25 100.9575 36.25 99.9375 36.25 C99.9375 36.91 99.9375 37.57 99.9375 38.25 C92.463176 40.802208 85.536827 41.550901 77.6875 41.5625 C76.429214 41.570234 76.429214 41.570234 75.145508 41.578125 C66.798863 41.48586 59.957073 39.882918 52.9375 35.25 C50.913997 32.214745 50.61626 31.055738 50.3125 27.5625 C50.200352 26.350137 50.200352 26.350137 50.085938 25.113281 C50.036953 24.498398 49.987969 23.883516 49.9375 23.25 C17.042634 8.44731 -26.020815 13.201337 -60.700928 19.016113 C-61.741926 19.189976 -62.782925 19.363838 -63.855469 19.542969 C-64.747742 19.703054 -65.640015 19.86314 -66.559326 20.028076 C-69.272816 20.268646 -71.430938 19.908555 -74.0625 19.25 C-74.0625 16.61 -74.0625 13.97 -74.0625 11.25 C-49.835993 3.820011 -25.349221 0.024607 0 0 Z " fill="#C0573A" transform="translate(173.0625,320.75)"/>
<path d="M0 0 C6.087814 4.454078 10.831361 9.134615 14 16 C14.353203 16.746367 14.706406 17.492734 15.070312 18.261719 C17.900064 26.596406 16.565543 37.092863 13.554688 45.191406 C10.690391 50.365851 6.441084 54.169141 2 58 C-2.324481 53.93226 -5.799903 49.463437 -9.3125 44.6875 C-9.862285 43.946934 -10.41207 43.206367 -10.978516 42.443359 C-12.322722 40.631603 -13.663087 38.817141 -15 37 C-19.483625 37.825283 -20.672691 39.825402 -23.25 43.5625 C-23.956406 44.574414 -24.662812 45.586328 -25.390625 46.628906 C-25.921719 47.411367 -26.452812 48.193828 -27 49 C-31.139224 47.471525 -33.225179 44.497937 -35.75 41.0625 C-36.18103 40.484919 -36.612061 39.907339 -37.056152 39.312256 C-37.941867 38.123208 -38.824514 36.931868 -39.704102 35.738281 C-40.91971 34.107699 -42.173495 32.505775 -43.429688 30.90625 C-44.154141 29.967813 -44.878594 29.029375 -45.625 28.0625 C-46.603398 26.811465 -46.603398 26.811465 -47.601562 25.535156 C-49.327776 22.405791 -49.417564 20.528178 -49 17 C-46.819306 11.868409 -43.109656 7.698691 -39 4 C-38.278125 3.319375 -37.55625 2.63875 -36.8125 1.9375 C-25.647057 -5.75425 -11.966346 -6.620434 0 0 Z " fill="#FDA907" transform="translate(324,156)"/>
<path d="M0 0 C2.969351 1.83817 5.682824 3.901031 8.441406 6.039062 C11.307893 8.120983 14.325479 9.787412 17.449219 11.449219 C18.167227 11.837227 18.885234 12.225234 19.625 12.625 C20.470625 13.063281 21.31625 13.501562 22.1875 13.953125 C25.025275 15.899548 26.24167 17.712128 27.9375 20.6875 C28.449258 21.565352 28.961016 22.443203 29.488281 23.347656 C30.625 25.625 30.625 25.625 30.625 27.625 C29.713431 27.601434 29.713431 27.601434 28.783447 27.577393 C15.682347 27.284941 3.401394 27.625664 -9.375 30.625 C-10.560938 30.891836 -11.746875 31.158672 -12.96875 31.433594 C-31.889459 36.227692 -46.781409 45.970181 -58.375 61.625 C-61.797424 60.484192 -62.255748 59.742411 -64.25 56.875 C-66.11314 54.260067 -67.916738 52.010498 -70.3125 49.875 C-70.993125 49.1325 -71.67375 48.39 -72.375 47.625 C-72.1875 45.3125 -72.1875 45.3125 -71.375 43.625 C-70.715 43.625 -70.055 43.625 -69.375 43.625 C-69.054023 42.839961 -69.054023 42.839961 -68.726562 42.039062 C-66.825285 38.643139 -64.31581 35.911731 -61.75 33 C-57.404793 28.016003 -53.203508 22.97065 -49.191406 17.710938 C-45.224096 13.15493 -40.216373 9.308999 -34.375 7.625 C-29.34813 7.298712 -24.403443 7.389292 -19.375 7.625 C-18.88 9.11 -18.88 9.11 -18.375 10.625 C-19.589844 12.667969 -19.589844 12.667969 -21.3125 14.8125 C-21.878398 15.52793 -22.444297 16.243359 -23.027344 16.980469 C-23.694434 17.794512 -23.694434 17.794512 -24.375 18.625 C-21.416995 17.917316 -21.416995 17.917316 -18.375 16.625 C-17.672006 15.310458 -17.010892 13.973282 -16.375 12.625 C-5.791364 -0.914426 -5.791364 -0.914426 0 0 Z " fill="#5B7D4A" transform="translate(310.375,244.375)"/>
<path d="M0 0 C0.845625 0.495 1.69125 0.99 2.5625 1.5 C8.473423 5.137491 12.327523 9.167242 16 15 C16 15.99 16 16.98 16 18 C12.25 19.125 12.25 19.125 10 18 C10 17.34 10 16.68 10 16 C9.34 16 8.68 16 8 16 C8 15.34 8 14.68 8 14 C7.471484 13.748633 6.942969 13.497266 6.398438 13.238281 C3.391206 11.685688 0.529154 9.92534 -2.375 8.1875 C-17.930975 -0.852143 -33.426674 -3.421595 -51.1875 -3.375 C-52.305752 -3.374683 -52.305752 -3.374683 -53.446594 -3.374359 C-71.81387 -3.322629 -89.152463 -0.370736 -106.849121 4.512451 C-112.696777 6.101074 -112.696777 6.101074 -116 5 C-116 2.69 -116 0.38 -116 -2 C-110.81697 -4.878509 -105.522981 -6.462448 -99.8125 -8 C-98.361338 -8.391915 -98.361338 -8.391915 -96.880859 -8.791748 C-87.669669 -11.205243 -78.450188 -12.871718 -69 -14 C-67.80375 -14.143086 -66.6075 -14.286172 -65.375 -14.433594 C-43.56348 -16.478424 -17.719122 -14.027638 0 0 Z " fill="#C0573A" transform="translate(227,318)"/>
<path d="M0 0 C1.111816 -0.002009 1.111816 -0.002009 2.246094 -0.004059 C16.403577 0.0015 29.779285 0.891116 43.26416 5.547607 C45.994886 6.45627 48.757009 7.113937 51.5625 7.75 C55.896405 8.796115 59.530264 10.007237 63.375 12.25 C63.375 14.56 63.375 16.87 63.375 19.25 C60.623534 20.625733 59.336555 19.907548 56.378906 19.140625 C55.356196 18.881685 54.333486 18.622744 53.279785 18.355957 C52.176831 18.073491 51.073877 17.791025 49.9375 17.5 C32.951658 13.354831 17.256672 10.976364 -0.25 10.8125 C-1.349701 10.79404 -1.349701 10.79404 -2.471619 10.775208 C-21.854528 10.503355 -40.835893 14.83641 -56.539062 26.734375 C-58.625 28.25 -58.625 28.25 -60.835938 29.265625 C-62.979141 30.181203 -62.979141 30.181203 -63.625 33.25 C-65.605 32.92 -67.585 32.59 -69.625 32.25 C-65.590122 25.029692 -60.65153 19.624131 -53.625 15.25 C-52.965 15.25 -52.305 15.25 -51.625 15.25 C-51.625 14.59 -51.625 13.93 -51.625 13.25 C-41.528484 7.273327 -32.127271 3.547858 -20.625 1.25 C-19.873799 1.074929 -19.122598 0.899858 -18.348633 0.719482 C-12.330722 -0.317847 -6.097143 0.006432 0 0 Z " fill="#C25A3E" transform="translate(327.625,303.75)"/>
<path d="M0 0 C0.66 0.33 1.32 0.66 2 1 C2.746094 3.265625 2.746094 3.265625 3.4375 6.25 C3.692734 7.334102 3.947969 8.418203 4.210938 9.535156 C4.601523 11.250254 4.601523 11.250254 5 13 C5.390586 14.668691 5.390586 14.668691 5.789062 16.371094 C6.299437 18.559519 6.802369 20.749695 7.297363 22.94165 C7.740609 24.870957 8.204946 26.795652 8.69873 28.712646 C9.220923 30.788164 9.622378 32.893377 10 35 C8.125 38.0625 8.125 38.0625 6 40 C2.5645 39.379594 0.500486 38.021075 -2.3125 36 C-8.898844 31.872426 -15.403443 32.020257 -23 32 C-22.158114 28.00755 -20.454068 25.272091 -18 22 C-17.34 22 -16.68 22 -16 22 C-15.782148 21.310352 -15.564297 20.620703 -15.339844 19.910156 C-13.625489 16.186557 -11.258904 13.492487 -8.5625 10.4375 C-7.583669 9.312038 -6.60578 8.185756 -5.628906 7.058594 C-5.172739 6.533784 -4.716572 6.008975 -4.246582 5.468262 C-2.748478 3.70375 -1.353867 1.877057 0 0 Z " fill="#5C7E4B" transform="translate(249,176)"/>
</svg>
