<?xml version="1.0" standalone="no"?>
<!DOCTYPE svg PUBLIC "-//W3C//DTD SVG 20010904//EN"
 "http://www.w3.org/TR/2001/REC-SVG-20010904/DTD/svg10.dtd">
<svg version="1.0" xmlns="http://www.w3.org/2000/svg"
 width="500.000000pt" height="500.000000pt" viewBox="0 0 500.000000 500.000000"
 preserveAspectRatio="xMidYMid meet">
<metadata>
Created by potrace 1.16, written by Peter Selinger 2001-2019
</metadata>
<g transform="translate(0.000000,500.000000) scale(0.100000,-0.100000)"
fill="#000000" stroke="none">
<path d="M3069 3586 c-1 -25 -2 -52 -3 -58 -1 -7 7 -14 17 -16 14 -3 17 5 19
42 0 25 1 52 2 58 1 7 -7 14 -16 16 -15 3 -18 -5 -19 -42z"/>
<path d="M2784 3526 c-6 -15 43 -96 58 -96 19 0 18 29 -4 63 -26 41 -46 53
-54 33z"/>
<path d="M2320 3315 c-91 -118 -171 -214 -178 -214 -7 -1 -25 17 -40 39 -15
22 -32 39 -39 37 -11 -2 -128 -148 -765 -959 -98 -125 -182 -230 -188 -233 -5
-3 -10 -11 -10 -17 0 -11 7 -10 145 21 108 25 336 51 437 51 97 0 256 -24 343
-50 167 -52 330 -162 419 -283 56 -77 81 -85 110 -36 30 51 137 159 199 201
190 129 442 184 736 160 155 -13 267 -30 376 -57 36 -9 70 -15 77 -13 7 3 -3
20 -23 44 -20 21 -96 118 -170 214 -75 96 -216 280 -315 407 -98 128 -199 260
-223 294 -80 111 -121 159 -136 159 -8 0 -36 -27 -62 -60 -25 -33 -51 -60 -57
-60 -6 0 -40 40 -76 87 -36 48 -101 130 -145 183 -44 53 -114 142 -155 197
-41 56 -79 102 -85 102 -5 0 -84 -96 -175 -214z m313 -86 c303 -390 284 -328
152 -499 -64 -82 -122 -150 -128 -150 -7 0 -32 39 -56 86 -54 103 -98 155
-159 192 -41 24 -57 27 -132 27 -75 0 -91 -4 -139 -30 -34 -19 -82 -61 -130
-115 -125 -140 -183 -194 -242 -224 -40 -21 -66 -45 -93 -83 -21 -30 -55 -74
-77 -99 -21 -25 -39 -48 -39 -51 0 -3 34 -3 75 0 137 10 205 55 350 232 82 99
125 144 125 131 0 -31 -147 -279 -195 -329 -20 -20 -33 -42 -30 -47 3 -6 23
-10 43 -10 35 -1 107 -16 179 -38 17 -6 71 -31 120 -56 49 -25 91 -46 94 -46
3 0 48 51 100 113 216 258 246 278 414 279 94 0 102 2 135 27 48 38 75 51 104
51 14 0 27 4 30 9 4 5 -7 50 -24 101 -16 50 -30 100 -30 111 0 27 -22 23 -45
-9 -10 -15 -59 -78 -108 -139 -89 -113 -89 -113 -134 -113 -33 0 -42 3 -37 13
33 53 310 387 320 385 10 -3 91 -104 286 -358 14 -19 99 -127 187 -240 152
-194 181 -240 146 -226 -97 37 -502 55 -615 28 -225 -55 -366 -133 -498 -279
-71 -77 -71 -77 -143 1 -123 131 -275 222 -449 268 -117 31 -406 31 -550 0
-52 -11 -98 -17 -101 -13 -8 8 706 915 723 918 7 2 26 -15 41 -37 16 -22 34
-40 40 -39 7 0 86 97 177 215 90 118 169 213 175 211 5 -2 67 -77 138 -168z"/>
<path d="M2449 3183 c-23 -32 -78 -101 -120 -155 -43 -53 -75 -98 -73 -101 3
-2 25 -2 49 1 56 6 138 -20 187 -59 20 -16 40 -29 45 -29 4 0 17 12 27 27 18
25 18 27 -4 122 -12 53 -30 128 -39 168 -9 39 -19 74 -22 77 -3 4 -26 -19 -50
-51z"/>
<path d="M2974 2455 c-51 -52 -98 -95 -104 -95 -18 0 -10 25 21 63 42 51 32
61 -56 54 -87 -6 -147 -33 -202 -90 -67 -68 -243 -281 -243 -293 0 -6 18 -31
41 -55 22 -24 47 -56 55 -71 8 -16 18 -28 23 -28 4 0 22 22 40 49 55 86 171
170 305 222 139 53 243 72 408 73 82 1 148 2 148 3 0 2 -16 27 -35 58 -28 43
-48 61 -93 84 -31 16 -85 50 -120 75 -34 25 -70 46 -79 46 -9 0 -58 -43 -109
-95z"/>
<path d="M3332 3491 c-18 -22 -32 -47 -32 -55 0 -25 26 -18 46 12 9 15 24 32
32 38 15 11 11 44 -6 44 -5 0 -23 -18 -40 -39z"/>
<path d="M2987 3470 c-21 -6 -52 -17 -68 -26 -97 -50 -202 -204 -139 -204 11
0 20 6 20 14 0 20 60 92 105 124 101 72 240 68 340 -11 22 -17 41 -35 43 -39
2 -4 13 -22 25 -40 25 -38 32 -76 31 -168 -1 -65 -3 -71 -60 -169 -18 -31 -23
-46 -15 -54 17 -17 57 27 94 102 28 57 32 76 32 146 0 71 -4 88 -33 147 -36
74 -91 127 -162 159 -52 23 -158 33 -213 19z"/>
<path d="M3460 3285 c-19 -7 -36 -20 -38 -29 -4 -19 9 -20 61 -5 26 7 37 15
37 29 0 22 -10 23 -60 5z"/>
<path d="M3427 3054 c-23 -23 26 -54 86 -54 30 0 15 33 -18 41 -17 4 -37 9
-46 13 -8 4 -18 3 -22 0z"/>
<path d="M3300 2854 c0 -14 56 -84 68 -84 21 0 13 20 -20 56 -30 32 -48 42
-48 28z"/>
<path d="M1580 1949 c-89 -11 -235 -43 -355 -78 -100 -29 -100 -29 -103 -66
-3 -35 -2 -37 20 -31 72 20 240 58 325 73 143 24 432 24 536 0 143 -34 274
-99 366 -183 43 -38 81 -42 62 -6 -18 33 -137 138 -200 176 -169 103 -412 146
-651 115z"/>
<path d="M3108 1945 c-182 -31 -337 -107 -450 -221 -38 -37 -68 -71 -68 -76 0
-5 7 -11 15 -14 9 -4 36 13 69 43 102 93 266 161 441 184 173 21 451 -4 670
-62 136 -36 127 -36 123 2 -3 32 -6 35 -71 56 -270 90 -532 121 -729 88z"/>
<path d="M1530 1774 c-129 -14 -349 -55 -475 -87 -49 -13 -50 -14 -50 -53 0
-30 4 -38 15 -36 22 6 117 20 255 39 84 11 201 16 390 17 280 1 346 -6 495
-51 77 -23 90 -36 90 -94 0 -41 4 -50 28 -66 43 -30 73 -40 155 -53 120 -20
284 13 327 65 8 10 17 41 20 69 5 50 6 51 52 68 27 10 94 28 150 40 92 20 131
22 368 22 260 1 371 -8 560 -41 47 -8 92 -15 100 -16 10 -2 16 9 18 35 4 42
13 38 -184 82 -232 53 -296 60 -544 60 -222 1 -241 -1 -335 -25 -144 -38 -252
-85 -296 -130 -43 -43 -90 -54 -199 -47 -65 5 -72 8 -119 50 -57 51 -135 86
-279 124 -86 23 -119 26 -302 29 -113 2 -221 1 -240 -1z"/>
</g>
</svg>
